<?xml version="1.0" encoding="utf-8"?>
<!-- Generator: Adobe Illustrator 19.0.0, SVG Export Plug-In . SVG Version: 6.00 Build 0)  -->
<svg version="1.1" id="Layer_1" xmlns="http://www.w3.org/2000/svg" xmlns:xlink="http://www.w3.org/1999/xlink" x="0px" y="0px"
	 viewBox="0 0 457 464" style="enable-background:new 0 0 457 464;" xml:space="preserve">
<style type="text/css">
	.st0{fill:none;}
	.st1{fill:#E26F66;}
	.st2{fill:#FFFFFF;}
	.st3{fill:#85AA65;}
	.st4{fill:#859BB5;}
	.st5{fill:#F2F268;}
	.st6{fill:#FCA53D;}
	.st7{fill:#545454;}
	.st8{opacity:0.5;}
	.st9{opacity:0.1;enable-background:new    ;}
	.st10{fill:url(#SVGID_1_);}
</style>
<path class="st0" d="M302.2,124.5c-20.8-14.3-46-22.7-73.2-22.8V232L302.2,124.5z"/>
<path class="st0" d="M106.2,277.2c18.4,49.7,66.2,85.1,122.3,85.1c23.7,0,45.9-6.3,65-17.3L229,232L106.2,277.2z"/>
<g>
	<path class="st1" d="M301.3,125.7C280,111.1,255,103.3,229,103.2l-1.5,0v-68l1.5,0c39.7,0.1,78,12,110.6,34.3l1.2,0.8l-38.3,56.2
		L301.3,125.7z"/>
	<path class="st2" d="M229,36.7c40.7,0.1,78.5,12.7,109.8,34.1l-36.6,53.7c-20.8-14.3-46-22.7-73.2-22.8V36.7 M226,33.7v3v65v3l3,0
		c25.7,0.1,50.4,7.8,71.5,22.3l2.5,1.7l1.7-2.5l36.6-53.7l1.7-2.5l-2.5-1.7C307.6,45.7,269,33.8,229,33.7L226,33.7L226,33.7z"/>
</g>
<g>
	<path class="st3" d="M228.5,428.8c-41,0-80.4-12.5-113.7-36.1c-32.6-23.1-57.2-55.1-71-92.5l-0.5-1.4l63.8-23.5l0.5,1.4
		c18.6,50.3,67.2,84.1,120.9,84.1c22.6,0,44.8-5.9,64.2-17.1l1.3-0.8l33.7,59.1l-1.3,0.7C296.8,419.8,262.9,428.8,228.5,428.8z"/>
	<path class="st2" d="M106.2,277.2c18.4,49.7,66.2,85.1,122.3,85.1c23.7,0,45.9-6.3,65-17.3l32.2,56.5
		c-28.6,16.5-61.8,25.9-97.2,25.9c-84.1,0-155.7-53.1-183.3-127.6L106.2,277.2 M108,273.4l-2.8,1l-61,22.5l-2.8,1l1,2.8
		c13.9,37.6,38.6,69.9,71.5,93.2c33.6,23.8,73.2,36.4,114.6,36.4c34.7,0,68.8-9.1,98.7-26.3l2.6-1.5l-1.5-2.6l-32.2-56.5l-1.5-2.6
		l-2.6,1.5c-19.2,11.1-41.2,16.9-63.5,16.9c-53,0-101-33.4-119.5-83.1L108,273.4L108,273.4z"/>
</g>
<g>
	<path class="st4" d="M43.8,300.2c-8.1-21.8-12.2-44.8-12.2-68.2c0-108.5,88.3-196.8,196.8-196.8l0.5,0h1.5v68l-2,0
		c-71,0-128.8,57.8-128.8,128.8c0,15.4,2.7,30.4,8,44.7l0.5,1.4l-63.8,23.5L43.8,300.2z"/>
	<path class="st2" d="M228.5,36.7c0.2,0,0.3,0,0.5,0v65c-0.2,0-0.3,0-0.5,0c-72,0-130.3,58.4-130.3,130.3c0,15.9,2.9,31.1,8.1,45.2
		l-61,22.5c-7.8-21.1-12.1-43.9-12.1-67.7C33.2,124.1,120.6,36.7,228.5,36.7 M228.5,33.7c-26.8,0-52.7,5.2-77.2,15.6
		c-23.6,10-44.8,24.3-63,42.5c-18.2,18.2-32.5,39.4-42.5,63c-10.3,24.5-15.6,50.4-15.6,77.2c0,23.6,4.1,46.8,12.2,68.7l1,2.8l2.8-1
		l61-22.5l2.8-1l-1-2.8c-5.2-14.1-7.9-29-7.9-44.2c0-70.2,57.1-127.3,127.3-127.3l0.2,0l0.3,0l3,0v-3v-65v-3l-3,0l-0.2,0
		C228.7,33.7,228.6,33.7,228.5,33.7L228.5,33.7z"/>
</g>
<g>
	<path class="st5" d="M291.4,344.5l1.3-0.7c39.8-23,64.6-65.8,64.6-111.7v-1.5h68v1.5c0,35.3-9.4,69.9-27.3,100
		c-17.3,29.3-42.1,53.8-71.6,70.7l-1.3,0.8L291.4,344.5z"/>
	<path class="st2" d="M423.8,232c0,72.5-39.5,135.8-98.1,169.5L293.5,345c39.1-22.5,65.4-64.7,65.4-113H423.8 M426.8,229h-3h-65h-3
		v3c0,45.4-24.5,87.7-63.9,110.4l-2.6,1.5l1.5,2.6l32.2,56.5l1.5,2.6l2.6-1.5c29.7-17.1,54.7-41.7,72.1-71.3
		c18-30.4,27.5-65.3,27.5-100.8V229L426.8,229z"/>
</g>
<g>
	<path class="st6" d="M357.3,233.5V232c0-42.5-20.9-82.2-56-106.3l-1.2-0.8l38.3-56.2l1.2,0.9c53.7,36.8,85.7,97.5,85.7,162.5v1.5
		H357.3z"/>
	<path class="st2" d="M338.8,70.8c51.4,35.2,85.1,94.3,85.1,161.2h-65c0-44.6-22.4-84-56.6-107.5L338.8,70.8 M338,66.6l-1.7,2.5
		l-36.6,53.7l-1.7,2.5l2.5,1.7c34.7,23.8,55.3,63.1,55.3,105v3h3h65h3v-3c0-65.5-32.3-126.7-86.4-163.7L338,66.6L338,66.6z"/>
</g>
<g>
	<path class="st7" d="M163,229.3h-0.2l-4.4,42.3c-0.1,0.8-0.7,1.4-1.5,1.4h-14.9c-0.8,0-1.4-0.6-1.5-1.4l-8.8-78.9
		c-0.1-0.9,0.6-1.7,1.5-1.7h9.5c0.8,0,1.4,0.6,1.5,1.4l6.6,63.3h0.2l6-63.3c0.1-0.8,0.7-1.4,1.5-1.4h9.6c0.8,0,1.4,0.6,1.5,1.4
		l6.2,63.7h0.2l6.4-63.8c0.1-0.8,0.7-1.4,1.5-1.4h8.2c0.9,0,1.6,0.8,1.5,1.7l-8.8,78.9c-0.1,0.8-0.7,1.4-1.5,1.4h-14.4
		c-0.8,0-1.4-0.6-1.5-1.4L163,229.3z"/>
	<path class="st7" d="M228.9,229.3h-0.2l-4.4,42.3c-0.1,0.8-0.7,1.4-1.5,1.4h-14.9c-0.8,0-1.4-0.6-1.5-1.4l-8.8-78.9
		c-0.1-0.9,0.6-1.7,1.5-1.7h9.5c0.8,0,1.4,0.6,1.5,1.4l6.6,63.3h0.2l6-63.3c0.1-0.8,0.7-1.4,1.5-1.4h9.6c0.8,0,1.4,0.6,1.5,1.4
		l6.2,63.7h0.2l6.4-63.8c0.1-0.8,0.7-1.4,1.5-1.4h8.2c0.9,0,1.6,0.8,1.5,1.7l-8.8,78.9c-0.1,0.8-0.7,1.4-1.5,1.4h-14.4
		c-0.8,0-1.4-0.6-1.5-1.4L228.9,229.3z"/>
	<path class="st7" d="M294.8,229.3h-0.2l-4.4,42.3c-0.1,0.8-0.7,1.4-1.5,1.4h-14.9c-0.8,0-1.4-0.6-1.5-1.4l-8.8-78.9
		c-0.1-0.9,0.6-1.7,1.5-1.7h9.5c0.8,0,1.4,0.6,1.5,1.4l6.6,63.3h0.2l6-63.3c0.1-0.8,0.7-1.4,1.5-1.4h9.6c0.8,0,1.4,0.6,1.5,1.4
		l6.2,63.7h0.2l6.4-63.8c0.1-0.8,0.7-1.4,1.5-1.4h8.2c0.9,0,1.6,0.8,1.5,1.7l-8.8,78.9c-0.1,0.8-0.7,1.4-1.5,1.4h-14.4
		c-0.8,0-1.4-0.6-1.5-1.4L294.8,229.3z"/>
</g>
<g class="st8">
	<g class="st8">
		<rect x="156" y="149.7" class="st7" width="145" height="2"/>
	</g>
	<g class="st8">
		<rect x="156" y="312.3" class="st7" width="145" height="2"/>
	</g>
</g>
<g class="st9">
	<linearGradient id="SVGID_1_" gradientUnits="userSpaceOnUse" x1="33.1667" y1="232" x2="423.8333" y2="232">
		<stop  offset="0.586" style="stop-color:#FFFFFF"/>
		<stop  offset="1" style="stop-color:#231F20;stop-opacity:0.75"/>
	</linearGradient>
	<path class="st10" d="M338.8,70.8c-31.3-21.4-69-34-109.8-34.1c-0.2,0-0.3,0-0.5,0C120.6,36.7,33.2,124.1,33.2,232
		c0,23.8,4.3,46.6,12.1,67.7c27.5,74.5,99.2,127.6,183.3,127.6c35.4,0,68.6-9.4,97.2-25.9c58.6-33.7,98.1-97,98.1-169.5
		C423.8,165,390.1,105.9,338.8,70.8z M293.5,345c-19.1,11-41.3,17.3-65,17.3c-56.1,0-103.9-35.4-122.3-85.1
		c-5.2-14.1-8.1-29.3-8.1-45.2c0-72,58.4-130.3,130.3-130.3c0.2,0,0.3,0,0.5,0c27.2,0.1,52.4,8.5,73.2,22.8
		c34.2,23.5,56.6,62.9,56.6,107.5C358.8,280.3,332.5,322.5,293.5,345z"/>
</g>
<g>
	<path class="st2" d="M86.7,181.9l-1,2.8l-2.7-0.9l1-2.8L86.7,181.9z"/>
	<path class="st2" d="M92.3,169.2c-0.7,1.6-1.5,2.9-2.6,4c-1.1,1.1-2.3,1.9-3.7,2.4c-1.4,0.5-2.9,0.8-4.5,0.7s-3.2-0.4-4.9-1.1
		c-1.7-0.7-3-1.6-4.2-2.7c-1.1-1.1-2-2.4-2.6-3.7c-0.6-1.4-0.9-2.8-0.8-4.4c0-1.5,0.4-3.1,1-4.7c0.9-2.2,2.2-4,3.8-5.4l2.6,1.5
		l-1.4,1.5c-1,1-1.8,2.2-2.4,3.6c-0.5,1.2-0.8,2.4-0.7,3.5c0,1.1,0.3,2.1,0.8,3.1c0.5,1,1.2,1.8,2.1,2.6s2,1.4,3.2,2
		c1.2,0.5,2.4,0.8,3.6,0.9c1.2,0.1,2.3,0,3.3-0.3c1-0.3,2-0.9,2.8-1.6c0.8-0.8,1.5-1.8,2-3c0.1-0.3,0.2-0.6,0.3-0.9
		c0.1-0.3,0.2-0.6,0.3-0.9l0.2-0.8c0-0.2,0.1-0.5,0.1-0.9l0.1-0.8c0-0.1,0-0.4,0.1-0.9l0.1-0.8l2.8,0.8
		C93.7,164.9,93.3,167.1,92.3,169.2z"/>
	<path class="st2" d="M103,143.8c0.7,3,0.2,5.9-1.6,8.7c-0.9,1.4-2,2.6-3.2,3.5c-1.2,0.9-2.6,1.5-4,1.8c-1.4,0.3-2.9,0.3-4.5,0
		c-1.6-0.3-3.1-0.9-4.7-1.9s-2.8-2.1-3.8-3.4c-1-1.3-1.6-2.6-2-4c-0.4-1.4-0.4-2.9-0.2-4.4c0.3-1.5,0.8-3,1.7-4.4
		c0.9-1.4,1.9-2.6,3.2-3.5c1.2-0.9,2.6-1.5,4-1.8c1.4-0.3,2.9-0.3,4.5,0c1.6,0.3,3.1,0.9,4.7,1.9C100.3,138.3,102.2,140.8,103,143.8
		z M88.6,137.6c-2.2,0.3-4,1.5-5.3,3.7c-0.7,1.1-1.1,2.2-1.2,3.3c-0.1,1.1,0,2.1,0.3,3.2c0.3,1,0.9,2,1.7,2.9
		c0.8,0.9,1.7,1.7,2.9,2.4c1.1,0.7,2.3,1.2,3.4,1.5c1.1,0.3,2.2,0.4,3.3,0.2c1.1-0.1,2-0.5,3-1.1c0.9-0.6,1.7-1.4,2.4-2.5
		c0.7-1.1,1.1-2.2,1.2-3.3c0.1-1.1,0-2.2-0.3-3.2c-0.3-1-0.9-2-1.7-2.9c-0.8-0.9-1.7-1.7-2.8-2.4C93.1,137.9,90.8,137.3,88.6,137.6z
		"/>
	<path class="st2" d="M124,123.3l-2.2,2.5l-14.6-10l4.8,12.7l-13.3-3.2l11.7,13.3l-2.2,2.5l-15.3-17.8l1.8-2l12.7,3.1l-4.6-12.2
		l1.8-2L124,123.3z"/>
	<path class="st2" d="M241.9,82.2l-3-0.2l0.2-2.9l3,0.2L241.9,82.2z"/>
	<path class="st2" d="M260.4,84.8l-14.3-2.3l3.7-23l14,2.3l-0.5,2.8l-10.9-1.8l-1.1,6.7L260,71l-0.5,2.8l-8.6-1.4l-1.3,7.8l11.2,1.8
		L260.4,84.8z"/>
	<path class="st2" d="M271.7,88l-8.2-2.5l6.8-22.3l8.2,2.5c1.6,0.5,3,1.2,4.2,2.1c1.2,0.9,2.1,2,2.8,3.3c0.7,1.3,1.1,2.7,1.2,4.2
		c0.1,1.5-0.1,3.2-0.6,4.9c-0.5,1.7-1.3,3.2-2.2,4.4c-1,1.2-2.1,2.1-3.3,2.8c-1.3,0.7-2.6,1-4.2,1.1C275,88.7,273.4,88.5,271.7,88z
		 M277.7,68.5l-5.2-1.6l-5.2,16.8l5.2,1.6c1.2,0.4,2.4,0.5,3.5,0.4c1.1-0.1,2.1-0.4,3-0.9c0.9-0.5,1.7-1.3,2.3-2.2
		c0.7-0.9,1.2-2,1.6-3.3c0.4-1.3,0.6-2.5,0.6-3.6c0-1.1-0.2-2.2-0.7-3.1c-0.4-0.9-1.1-1.7-1.9-2.4C280,69.4,279,68.8,277.7,68.5z"/>
	<path class="st2" d="M289.8,83.6l5.8-12.1l2.9,1.4l-5.2,10.7c-0.5,1-0.9,2-1.2,3.1c-0.3,1-0.5,2-0.4,3c0,1,0.3,1.9,0.9,2.7
		c0.5,0.8,1.4,1.5,2.7,2.2c1.3,0.6,2.4,0.9,3.4,0.7c1-0.1,1.9-0.4,2.7-1c0.8-0.6,1.5-1.3,2.1-2.2c0.6-0.9,1.1-1.9,1.6-2.9l5.2-10.7
		L313,80l-5.8,12.1c-1.4,3-3.3,4.9-5.5,5.8c-2.2,0.9-4.8,0.7-7.7-0.7c-2.9-1.4-4.7-3.3-5.3-5.6C287.9,89.2,288.3,86.6,289.8,83.6z"
		/>
	<path class="st2" d="M341.3,132.6l-2-2.2l2.1-1.9l2,2.2L341.3,132.6z"/>
	<path class="st2" d="M357,148.2c-3-0.4-5.5-2-7.5-4.7c-1-1.4-1.7-2.8-2-4.3c-0.4-1.5-0.4-2.9-0.2-4.4c0.3-1.4,0.8-2.8,1.7-4.2
		c0.9-1.3,2-2.5,3.5-3.6c1.5-1.1,3-1.8,4.5-2.2c1.5-0.4,3-0.5,4.5-0.3c1.4,0.2,2.8,0.7,4.1,1.5c1.3,0.8,2.4,1.9,3.4,3.2
		c1,1.3,1.7,2.8,2,4.2c0.4,1.5,0.4,2.9,0.2,4.4c-0.3,1.5-0.8,2.8-1.7,4.2c-0.9,1.3-2,2.5-3.5,3.6C363.1,147.8,360.1,148.7,357,148.2
		z M368.1,137.2c0.6-2.1,0.1-4.2-1.4-6.3c-0.8-1-1.6-1.8-2.6-2.4s-2-0.8-3-0.9c-1.1-0.1-2.2,0.1-3.3,0.5c-1.1,0.4-2.2,1-3.3,1.7
		c-1.1,0.8-2,1.7-2.7,2.6c-0.7,1-1.2,1.9-1.5,3c-0.3,1-0.3,2.1-0.1,3.2c0.2,1.1,0.7,2.1,1.5,3.2c0.8,1,1.6,1.8,2.6,2.4
		s2,0.8,3.1,0.9c1.1,0.1,2.2-0.1,3.3-0.5c1.1-0.4,2.2-1,3.3-1.8C366.2,141.3,367.6,139.4,368.1,137.2z"/>
	<path class="st2" d="M365.9,170.2l-1.6-3l5.6-8.8l-2.3-4.3l-8,4.2l-1.5-2.9l20.6-10.8l3.5,6.7c0.6,1.1,1,2.2,1.3,3.2
		c0.3,1,0.3,1.9,0.1,2.8c-0.2,0.9-0.5,1.6-1.1,2.4s-1.4,1.4-2.5,1.9c-1.3,0.7-2.6,1-4,0.8c-1.4-0.1-2.6-0.6-3.8-1.6L365.9,170.2z
		 M379.9,152.4l-2-3.7l-7.6,4l2.3,4.4c0.2,0.5,0.6,0.9,0.9,1.2s0.8,0.6,1.3,0.7c0.5,0.2,1,0.2,1.6,0.1c0.6-0.1,1.2-0.3,1.8-0.6
		c1.2-0.6,1.9-1.5,2.2-2.5C380.9,155,380.7,153.8,379.9,152.4z"/>
	<path class="st2" d="M369.9,182.2c-0.6-1.5-0.8-3.1-0.7-4.6c0.1-1.5,0.4-2.9,1.1-4.3c0.7-1.3,1.6-2.5,2.8-3.5
		c1.2-1,2.7-1.9,4.4-2.5s3.4-0.9,5-0.9c1.6,0,3.1,0.4,4.4,1c1.3,0.6,2.5,1.5,3.6,2.6c1,1.1,1.8,2.5,2.4,4.1c0.9,2.5,1.3,4.8,1.1,7
		l-2.7,0.7c0-2.5-0.4-4.7-1.1-6.5c-0.5-1.3-1.1-2.3-1.9-3.1c-0.8-0.8-1.7-1.4-2.7-1.8c-1-0.4-2.1-0.5-3.3-0.5
		c-1.2,0.1-2.4,0.3-3.7,0.8c-1.3,0.5-2.4,1.1-3.4,1.8c-0.9,0.7-1.7,1.6-2.2,2.6c-0.5,1-0.8,2-0.8,3.2c0,1.2,0.2,2.5,0.7,3.8
		c0.5,1.5,1.2,2.6,1.9,3.4l5.4-2l-1.2-3.4l2.7-1l2.3,6.4l-9.8,3.5c-0.4-0.3-0.8-0.8-1.2-1.3c-0.4-0.5-0.8-1.1-1.2-1.7
		c-0.4-0.6-0.8-1.3-1.1-1.9C370.3,183.4,370.1,182.8,369.9,182.2z"/>
	<path class="st2" d="M370.7,280.8l0.9-2.8l2.7,0.9l-0.9,2.8L370.7,280.8z"/>
	<path class="st2" d="M362.4,301.3l1.1-2.5l21.7-4l-16.9-7.2l1.3-2.9l21.4,9.1l-1.4,3.2l-20.5,3.7l16,6.8l-1.3,2.9L362.4,301.3z"/>
	<path class="st2" d="M352.4,317.5l7.6-12.4l19.9,12.2l-7.4,12.1L370,328l5.8-9.4l-5.8-3.6l-4.6,7.5l-2.4-1.5l4.6-7.5l-6.7-4.1
		l-5.9,9.6L352.4,317.5z"/>
	<path class="st2" d="M357.5,344.3l4.2-5.3l-16.1-12.6l2-2.5l16.1,12.6l4.2-5.3l2.3,1.8l-10.4,13.2L357.5,344.3z"/>
	<path class="st2" d="M192.6,378l2.9,0.7l-0.7,2.8l-2.9-0.7L192.6,378z"/>
	<path class="st2" d="M179.4,373.6c1.6,0.5,3,1.3,4.2,2.3c1.2,1,2.1,2.2,2.7,3.5c0.6,1.3,1,2.8,1.1,4.4c0.1,1.6-0.2,3.3-0.7,5
		c-0.6,1.7-1.3,3.2-2.4,4.4c-1,1.2-2.2,2.2-3.5,2.9c-1.3,0.7-2.7,1.1-4.3,1.2c-1.5,0.1-3.1-0.1-4.7-0.6c-2.3-0.7-4.2-1.8-5.7-3.3
		l1.2-2.7l1.6,1.2c1,0.9,2.3,1.6,3.8,2c1.2,0.4,2.4,0.5,3.5,0.4c1.1-0.1,2.1-0.5,3-1c0.9-0.6,1.7-1.3,2.4-2.3c0.7-1,1.3-2.1,1.7-3.3
		c0.4-1.2,0.6-2.5,0.6-3.6c0-1.2-0.2-2.3-0.6-3.3c-0.4-1-1-1.9-1.9-2.7c-0.8-0.8-1.9-1.4-3.1-1.8c-0.3-0.1-0.6-0.2-0.9-0.3
		c-0.3-0.1-0.6-0.1-1-0.2l-0.8-0.1c-0.2,0-0.5,0-0.9,0l-0.8,0c-0.1,0-0.4,0-0.9,0l-0.8,0l0.6-2.9C175,372.7,177.2,372.9,179.4,373.6
		z"/>
	<path class="st2" d="M154.5,363.2l3,1.4l-0.7,6.6l8,3.9l4.7-4.7l3,1.4L155,389.3l-3-1.4L154.5,363.2z M156.4,374.3l-1.1,10.3
		l7.3-7.3L156.4,374.3z"/>
</g>
</svg>
